<svg width="243" height="243" viewBox="0 0 243 243" fill="none" xmlns="http://www.w3.org/2000/svg">
  <path fill-rule="evenodd" clip-rule="evenodd" d="M214.142 0.5H243C243 75.4918 183.786 136.5 111 136.5V106.767C167.876 106.767 214.142 59.0916 214.142 0.5Z" fill="#4285F4"></path>
  <path fill-rule="evenodd" clip-rule="evenodd" d="M214.142 242.5H243C243 167.508 183.786 106.5 111 106.5L111 136.233C167.876 136.233 214.142 183.908 214.142 242.5Z" fill="#4285F4"></path>
  <path fill-rule="evenodd" clip-rule="evenodd" d="M103.141 0.5H132C132 75.4918 72.7866 136.5 0 136.5V106.767C56.8752 106.767 103.141 59.0916 103.141 0.5Z" fill="#4285F4"></path>
  <path fill-rule="evenodd" clip-rule="evenodd" d="M103.141 242.5H132C132 167.508 72.7866 106.5 0 106.5L0 136.233C56.8752 136.233 103.141 183.908 103.141 242.5Z" fill="#4285F4"></path>
</svg>