<svg width="264" height="263" viewBox="0 0 264 263" fill="none" xmlns="http://www.w3.org/2000/svg">
  <path fill-rule="evenodd" clip-rule="evenodd" d="M77.5 155.5C34.6988 155.5 0 120.802 0 78C0 35.1976 34.6988 0.5 77.5 0.5C120.302 0.5 155 35.1976 155 78C155 120.802 120.302 155.5 77.5 155.5Z" fill="#EA4335"></path>
  <path fill-rule="evenodd" clip-rule="evenodd" d="M263 185C263 142.198 228.302 107.5 185.5 107.5C142.698 107.5 108 142.198 108 185C108 227.801 142.698 262.5 185.5 262.5C228.302 262.5 263 227.801 263 185ZM251.556 185C251.556 221.423 221.923 251.056 185.5 251.056C149.077 251.056 119.444 221.423 119.444 185C119.444 148.577 149.077 118.944 185.5 118.944C221.923 118.944 251.556 148.577 251.556 185Z" fill="#EA4335"></path>
  <path d="M263.5 185C263.5 141.921 228.579 107 185.5 107V108C228.026 108 262.5 142.474 262.5 185H263.5ZM185.5 107C142.421 107 107.5 141.921 107.5 185H108.5C108.5 142.474 142.974 108 185.5 108V107ZM107.5 185C107.5 228.077 142.421 263 185.5 263V262C142.974 262 108.5 227.525 108.5 185H107.5ZM185.5 263C228.579 263 263.5 228.077 263.5 185H262.5C262.5 227.525 228.026 262 185.5 262V263ZM251.056 185C251.056 221.147 221.647 250.556 185.5 250.556V251.556C222.2 251.556 252.056 221.7 252.056 185H251.056ZM185.5 250.556C149.353 250.556 119.944 221.147 119.944 185H118.944C118.944 221.7 148.8 251.556 185.5 251.556V250.556ZM119.944 185C119.944 148.853 149.353 119.444 185.5 119.444V118.444C148.8 118.444 118.944 148.3 118.944 185H119.944ZM185.5 119.444C221.647 119.444 251.056 148.853 251.056 185H252.056C252.056 148.3 222.2 118.444 185.5 118.444V119.444Z" fill="#EA4335"></path>
</svg>