<svg xmlns="http://www.w3.org/2000/svg" width="135" height="195" style="width:100%;height:100%;transform:translate3d(0,0,0)"><path stroke-miterlimit="10" stroke="#d1e3fd" stroke-width="5" d="M99.56100082 62.625C83.29500008 62.625 70.061 49.39099884 70.061 33.125s13.23400009-29.5 29.50000083-29.5c16.26599884 0 29.5 13.23400116 29.5 29.5s-13.23400116 29.5-29.5 29.5z" fill="none"/><path stroke-miterlimit="10" stroke="#adcaf9" stroke-width="5" d="M6.060997 126.625v-61.5c0-33.07299805 26.24500276-60.13300323 59.00000287-61.44999695V126.625H6.06099701z" fill="none"/><path fill="#d1e3fd" d="M67.5610001 193.125c35.34599949 0 64.00000072-28.65399933 64.00000072-64H3.56099701c0 35.34600067 28.65400314 64 64.0000031 64z"/><path fill="#3d82f8" d="M67.5610001 65.375v64h64.00000072c0-35.34599996-28.65400123-64-64.00000071-64z"/></svg>