<svg
    xmlns="http://www.w3.org/2000/svg"
    viewBox="0 0 80 16"
    id="vector">
    <path
        id="path"
        d="M 26.18 34.1 C 26.18 26.634 29.149 19.467 34.428 14.188 C 39.707 8.909 46.874 5.94 54.34 5.94 C 61.806 5.94 68.973 8.909 74.252 14.188 C 79.531 19.467 82.5 26.634 82.5 34.1"
        fill="none"
        stroke="#e4f7fb"
        stroke-width="1.32"/>
    <path
        id="path_1"
        d="M 12.54 8.72 C 12.54 14.179 14.711 19.419 18.571 23.279 C 22.431 27.139 27.671 29.31 33.13 29.31 C 38.589 29.31 43.829 27.139 47.689 23.279 C 51.549 19.419 53.72 14.179 53.72 8.72 C 53.72 3.261 51.549 -1.979 47.689 -5.839 C 43.829 -9.699 38.589 -11.87 33.13 -11.87 C 27.671 -11.87 22.431 -9.699 18.571 -5.839 C 14.711 -1.979 12.54 3.261 12.54 8.72"
        fill="none"
        stroke="#78d9ec"
        stroke-width="1.32"/>
    <path
        id="path_2"
        d="M 40.7 0 L 40.7 28.2 L 3.3 28.2 C 3.52 20.92 7.62 13.02 14.54 6.92 C 21.61 0.68 30.95 -3.13 40.69 -3.5"
        fill="none"
        stroke="#cbf0f8"
        stroke-width="1.32"/>
</svg>
