<svg
    xmlns="http://www.w3.org/2000/svg"
    viewBox="0 0 192 108"
    id="vector">
    <path
        id="path"
        d="M 18.34 9.5 C 18.34 25.486 24.672 40.834 35.931 52.139 C 47.19 63.443 62.477 69.8 78.4 69.8 C 94.323 69.8 109.61 63.443 120.869 52.139 C 132.128 40.834 138.46 25.486 138.46 9.5 C 138.46 -6.486 132.128 -21.834 120.869 -33.139 C 109.61 -44.443 94.323 -50.8 78.4 -50.8 C 62.477 -50.8 47.19 -44.443 35.931 -33.139 C 24.672 -21.834 18.34 -6.486 18.34 9.5 Z"
        fill="#fad2cf"
        stroke="#fad2cf"
        stroke-width="6.6"/>
    <path
        id="path_1"
        d="M 0 56.5 L 86 56.5 L 86 108"
        fill="none"
        stroke="#174ea6"
        stroke-width="3.96"/>
    <path
        id="path_2"
        d="M 192 25 L 174 25 L 174 55.5 L 141.75 55.5 L 141.75 88.75 L 114.5 88.75 L 114.5 108"
        fill="none"
        stroke="#4285f4"
        stroke-width="3.96"/>
</svg>
