<svg
    xmlns="http://www.w3.org/2000/svg"
    viewBox="0 0 288 162"
    id="vector">
    <path
        id="path_7"
        d="M 145.13 64.9 C 145.13 64.9 156.06 83.37 156.06 83.37"
        fill="none"
        stroke="#e5443f"
        stroke-width="5"/>
    <path
        id="path_8"
        d="M 150.59 81.59 C 154.88 69.04 173.04 66.23 179.4 81.74 M 169.5 82.04 C 177.03 61.65 204.8 63.13 210.71 82.33 M 197.56 82.33 C 209.23 66.82 234.63 67.56 245.27 82.92 M 253.98 82.33 C 245.42 41.57 195.2 45.11 192.1 82.78 M 208.34 82.33 C 223.85 58.7 252.36 62.54 262.7 82.04 M 165.81 82.18 C 166.25 57.22 212.78 43.19 223.7 82.04"
        fill="none"
        stroke="#fbbc04"
        stroke-width="3.5"/>
    <path
        id="path_9"
        d="M 156.35 56.04 C 156.35 56.04 163 82.18 163 82.18"
        fill="none"
        stroke="#e5443f"
        stroke-width="5"/>
    <path
        id="path_10"
        d="M 258.86 57.67 C 258.86 57.67 249.85 82.18 249.85 82.18 M 264.03 63.13 C 264.03 63.13 248.96 82.04 248.96 82.04"
        fill="none"
        stroke="#34a853"
        stroke-width="4"/>
    <path
        id="path_11"
        d="M 273.04 71.99 C 273.04 71.99 261.66 87.65 261.66 87.65"
        fill="none"
        stroke="#fde293"
        stroke-width="13"/>
    <path
        id="path_12"
        d="M 283.97 79.53 C 284.26 123.69 249.76 155 211.15 155 C 172.54 155 138.48 123.84 138.48 79.38 C 138.48 79.38 283.97 79.53 283.97 79.53 Z"
        fill="#cbf0f8"/>
    <path
        id="path_13"
        d="M 7.12 70.39 L 71.63 7.79 C 72.47 6.98 73.88 7.53 73.97 8.7 L 125.64 127.67 L 7.19 72.11 C 6.78 71.93 6.6 71.01 7.11 70.39 Z"
        fill="#fde293"/>
    <path
        id="path_14"
        d="M 18.24 74.62 L 76.01 18.56 L 121.03 123.23 Z"
        fill="none"
        stroke="#ee675c"
        stroke-width="4.708935"/>
    <path
        id="path_15"
        d="M 67.86 79.01 C 69.613 79.455 71.176 80.456 72.314 81.863 C 73.453 83.27 74.108 85.009 74.181 86.82 C 74.254 88.631 73.741 90.419 72.719 91.916 C 71.698 93.414 70.221 94.541 68.51 95.131 C 66.798 95.721 64.943 95.741 63.22 95.19 C 61.467 94.745 59.904 93.744 58.766 92.337 C 57.627 90.93 56.972 89.191 56.899 87.38 C 56.826 85.569 57.339 83.781 58.361 82.284 C 59.382 80.786 60.859 79.659 62.57 79.069 C 64.282 78.479 66.137 78.459 67.86 79.01 Z"
        fill="#ffffff"/>
    <path
        id="path_16"
        d="M 48.75 61.86 C 50.503 62.305 52.066 63.306 53.204 64.713 C 54.343 66.12 54.998 67.859 55.071 69.67 C 55.144 71.481 54.631 73.269 53.609 74.766 C 52.588 76.264 51.111 77.391 49.4 77.981 C 47.688 78.571 45.833 78.591 44.11 78.04 C 42.357 77.595 40.794 76.594 39.656 75.187 C 38.517 73.78 37.862 72.041 37.789 70.23 C 37.716 68.419 38.229 66.631 39.251 65.134 C 40.272 63.636 41.749 62.509 43.46 61.919 C 45.172 61.329 47.027 61.309 48.75 61.86 Z"
        fill="#ffffff"/>
    <path
        id="path_17"
        d="M 100.26 85.38 C 102.013 85.825 103.576 86.826 104.714 88.233 C 105.853 89.64 106.508 91.379 106.581 93.19 C 106.654 95.001 106.141 96.789 105.119 98.286 C 104.098 99.784 102.621 100.911 100.91 101.501 C 99.198 102.091 97.343 102.111 95.62 101.56 C 93.867 101.115 92.304 100.114 91.166 98.707 C 90.027 97.3 89.372 95.561 89.299 93.75 C 89.226 91.939 89.739 90.151 90.761 88.654 C 91.782 87.156 93.259 86.029 94.97 85.439 C 96.682 84.849 98.537 84.829 100.26 85.38 Z"
        fill="#ffffff"/>
    <path
        id="path_18"
        d="M 69.57 29.89 C 71.323 30.335 72.886 31.336 74.024 32.743 C 75.163 34.15 75.818 35.889 75.891 37.7 C 75.964 39.511 75.451 41.299 74.429 42.796 C 73.408 44.294 71.931 45.421 70.22 46.011 C 68.508 46.601 66.653 46.621 64.93 46.07 C 63.177 45.625 61.614 44.624 60.476 43.217 C 59.337 41.81 58.682 40.071 58.609 38.26 C 58.536 36.449 59.049 34.661 60.071 33.164 C 61.092 31.666 62.569 30.539 64.28 29.949 C 65.992 29.359 67.847 29.339 69.57 29.89 Z"
        fill="#ffffff"/>
    <path
        id="path_19"
        d="M 85.77 62.26 C 87.523 62.705 89.086 63.706 90.224 65.113 C 91.363 66.52 92.018 68.259 92.091 70.07 C 92.164 71.881 91.651 73.669 90.629 75.166 C 89.608 76.664 88.131 77.791 86.42 78.381 C 84.708 78.971 82.853 78.991 81.13 78.44 C 79.377 77.995 77.814 76.994 76.676 75.587 C 75.537 74.18 74.882 72.441 74.809 70.63 C 74.736 68.819 75.249 67.031 76.271 65.534 C 77.292 64.036 78.769 62.909 80.48 62.319 C 82.192 61.729 84.047 61.709 85.77 62.26 Z"
        fill="#ffffff"/>
    <path
        id="path_20"
        d="M 68.95 43.81 C 68 40.26 70.26 36.56 74 35.56 L 77.44 48.43 C 73.7 49.43 69.91 47.37 68.96 43.81"
        fill="#34a853"/>
    <path
        id="path_21"
        d="M 39.35 76.17 C 36.02 77.73 32 76.14 30.36 72.63 L 42.42 66.99 C 44.05 70.5 42.68 74.61 39.35 76.16 Z"
        fill="#34a853"/>
    <path
        id="path_22"
        d="M 71.8 63.81 C 75.25 62.55 79.12 64.48 80.44 68.12 L 67.94 72.68 C 66.62 69.04 68.35 65.07 71.8 63.81 Z"
        fill="#34a853"/>
    <path
        id="path_23"
        d="M 69.14 91.59 C 71.45 88.73 75.76 88.38 78.77 90.82 L 70.39 101.18 C 67.39 98.74 66.83 94.45 69.14 91.59 Z"
        fill="#34a853"/>
    <path
        id="path_24"
        d="M 94.46 103.85 C 94.08 100.19 96.89 96.85 100.73 96.49 L 102.11 109.74 C 98.26 110.15 94.84 107.51 94.45 103.85 Z"
        fill="#34a853"/>
</svg>
