<svg
    xmlns="http://www.w3.org/2000/svg"
    viewBox="0 0 90 20"
    id="vector">
    <path
        id="path"
        d="M 11.44 13.8 L 15.14 13.8 L 15.14 6.17 L 11.44 6.17 Z"
        fill="none"
        stroke="#aecbf7"
        stroke-width="0.4"/>
    <path
        id="path_1"
        d="M 18.57 4.795 L 16.12 15.655"
        fill="none"
        stroke="#aecbf7"
        stroke-width="0.4"/>
    <path
        id="path_2"
        d="M 22.94 6.24 C 23.751 6.24 24.541 6.497 25.197 6.973 C 25.853 7.45 26.342 8.122 26.592 8.893 C 26.843 9.664 26.843 10.496 26.592 11.267 C 26.342 12.038 25.853 12.71 25.197 13.187 C 24.541 13.663 23.751 13.92 22.94 13.92 C 22.129 13.92 21.339 13.663 20.683 13.187 C 20.027 12.71 19.538 12.038 19.288 11.267 C 19.037 10.496 19.037 9.664 19.288 8.893 C 19.538 8.122 20.027 7.45 20.683 6.973 C 21.339 6.497 22.129 6.24 22.94 6.24"
        fill="none"
        stroke="#4285f4"
        stroke-width="0.4"/>
    <path
        id="path_7"
        d="M 28.7 13.8 L 32.4 13.8 L 32.4 6.17 L 28.7 6.17 Z"
        fill="none"
        stroke="#fad2cf"
        stroke-width="0.4"/>
    <path
        id="path_8"
        d="M 35.91 4.795 L 33.46 15.655"
        fill="none"
        stroke="#fad2cf"
        stroke-width="0.4"/>
    <path
        id="path_10"
        d="M 40.28 6.24 C 41.091 6.24 41.881 6.497 42.537 6.973 C 43.193 7.45 43.682 8.122 43.932 8.893 C 44.183 9.664 44.183 10.496 43.932 11.267 C 43.682 12.038 43.193 12.71 42.537 13.187 C 41.881 13.663 41.091 13.92 40.28 13.92 C 39.469 13.92 38.679 13.663 38.023 13.187 C 37.367 12.71 36.878 12.038 36.628 11.267 C 36.377 10.496 36.377 9.664 36.628 8.893 C 36.878 8.122 37.367 7.45 38.023 6.973 C 38.679 6.497 39.469 6.24 40.28 6.24"
        fill="none"
        stroke="#e5443f"
        stroke-width="0.4"/>
    <path
        id="path_11"
        d="M 46.04 13.8 L 49.74 13.8 L 49.74 6.17 L 46.04 6.17 Z"
        fill="none"
        stroke="#fde293"
        stroke-width="0.4"/>
    <path
        id="path_12"
        d="M 53.25 4.795 L 50.8 15.655"
        fill="none"
        stroke="#fde293"
        stroke-width="0.4"/>
    <path
        id="path_13"
        d="M 57.62 6.24 C 58.431 6.24 59.221 6.497 59.877 6.973 C 60.533 7.45 61.022 8.122 61.272 8.893 C 61.523 9.664 61.523 10.496 61.272 11.267 C 61.022 12.038 60.533 12.71 59.877 13.187 C 59.221 13.663 58.431 13.92 57.62 13.92 C 56.809 13.92 56.019 13.663 55.363 13.187 C 54.707 12.71 54.218 12.038 53.968 11.267 C 53.717 10.496 53.717 9.664 53.968 8.893 C 54.218 8.122 54.707 7.45 55.363 6.973 C 56.019 6.497 56.809 6.24 57.62 6.24"
        fill="none"
        stroke="#fbbc04"
        stroke-width="0.4"/>
    <path
        id="path_14"
        d="M 63.38 13.8 L 67.08 13.8 L 67.08 6.17 L 63.38 6.17 Z"
        fill="none"
        stroke="#a8dab5"
        stroke-width="0.4"/>
    <path
        id="path_15"
        d="M 70.59 4.795 L 68.14 15.655"
        fill="none"
        stroke="#a8dab5"
        stroke-width="0.4"/>
    <path
        id="path_16"
        d="M 74.96 6.24 C 75.771 6.24 76.561 6.497 77.217 6.973 C 77.873 7.45 78.362 8.122 78.612 8.893 C 78.863 9.664 78.863 10.496 78.612 11.267 C 78.362 12.038 77.873 12.71 77.217 13.187 C 76.561 13.663 75.771 13.92 74.96 13.92 C 74.149 13.92 73.359 13.663 72.703 13.187 C 72.047 12.71 71.558 12.038 71.308 11.267 C 71.057 10.496 71.057 9.664 71.308 8.893 C 71.558 8.122 72.047 7.45 72.703 6.973 C 73.359 6.497 74.149 6.24 74.96 6.24"
        fill="none"
        stroke="#5bb974"
        stroke-width="0.4"/>
</svg>
