<svg
    xmlns="http://www.w3.org/2000/svg"
    viewBox="0 0 80 16"
    id="vector">
    <path
        id="path_3"
        d="M 61.6 -32.45 C 61.6 -21.991 57.441 -11.95 50.045 -4.555 C 42.65 2.841 32.609 7 22.15 7 C 11.691 7 1.65 2.841 -5.745 -4.555 C -13.141 -11.95 -17.3 -21.991 -17.3 -32.45"
        fill="#1a73e8"
        fill-rule="evenodd"/>
    <path
        id="path_4"
        d="M 42.55 3.25 M 73.24 3.25 C 73.24 11.386 70.004 19.198 64.251 24.951 C 58.498 30.704 50.686 33.94 42.55 33.94 C 34.414 33.94 26.602 30.704 20.849 24.951 C 15.096 19.198 11.86 11.386 11.86 3.25 C 11.86 -4.886 15.096 -12.698 20.849 -18.451 C 26.602 -24.204 34.414 -27.44 42.55 -27.44 C 50.686 -27.44 58.498 -24.204 64.251 -18.451 C 70.004 -12.698 73.24 -4.886 73.24 3.25"
        fill="none"
        stroke="#ee675c"
        stroke-width="1.32"/>
    <path
        id="path_5"
        d="M 78.9 -1 C 64.62 11.62 45.67 19.27 25.96 19.86 L 25.96 0"
        fill="none"
        stroke="#a8dab5"
        stroke-width="1.32"/>
</svg>
