<svg
    xmlns="http://www.w3.org/2000/svg"
    viewBox="0 0 192 108"
    id="vector">
    <path
        id="path_3"
        d="M 139 108 L 139 38 L 45 112"
        fill="none"
        stroke="#fbbc04"
        stroke-width="3.3"/>
    <path
        id="path_4"
        d="M 172 0 L 172 46.55 L 192 46.55"
        fill="none"
        stroke="#ee675c"
        stroke-width="3.3"/>
    <path
        id="path_5"
        d="M 49.31 16.19 C 49.31 21.625 51.009 26.923 54.163 31.32 C 57.316 35.717 61.765 38.991 66.868 40.67 C 71.971 42.35 77.469 42.35 82.572 40.67 C 87.675 38.991 92.124 35.717 95.277 31.32 C 98.431 26.923 100.13 21.625 100.13 16.19 C 100.13 9.366 97.451 2.814 92.688 -2.011 C 87.924 -6.836 81.457 -9.55 74.72 -9.55 C 67.983 -9.55 61.516 -6.836 56.752 -2.011 C 51.989 2.814 49.31 9.366 49.31 16.19 Z"
        fill="none"
        stroke="#5bb974"
        stroke-width="3.3"/>
    <path
        id="path_6"
        d="M 0 95.5 L 35 95.5 L 35 54.5 L 14.5 54.5 L 14.5 33 L -7.5 33"
        fill="none"
        stroke="#4285f4"
        stroke-width="3.3"/>
</svg>
