<svg
    xmlns="http://www.w3.org/2000/svg"
    viewBox="0 0 328 200"
    id="vector">
    <path
        id="path_3"
        d="M 83.892 201 M 166.892 201 C 166.892 178.995 158.141 157.87 142.582 142.31 C 127.022 126.751 105.897 118 83.892 118 C 61.887 118 40.762 126.751 25.202 142.31 C 9.643 157.87 0.892 178.995 0.892 201 C 0.892 223.005 9.643 244.13 25.202 259.69 C 40.762 275.249 61.887 284 83.892 284 C 105.897 284 127.022 275.249 142.582 259.69 C 158.141 244.13 166.892 223.005 166.892 201"
        fill="#fbbc04"/>
    <path
        id="path_4"
        d="M 169.5 2.5 L 169.5 197.5 L 325.5 197.5 L 325.5 96.27 L 277.34 96.27 L 277.34 45.54 L 225.64 45.54 L 225.64 2.5 L 169.51 2.5 Z"
        fill="none"
        stroke="#af5cf7"
        stroke-width="5"/>
    <path
        id="path_5"
        d="M 1.72 2.5 L 1.72 115.5 L 78.52 115.5 Z"
        fill="none"
        stroke="#4285f4"
        stroke-width="5"/>
    <path
        id="path_6"
        d="M 82.231 0 L 82.231 118 L 166.987 118 Z"
        fill="#78d9ec"/>
</svg>
