<svg
    xmlns="http://www.w3.org/2000/svg"
    viewBox="0 0 328 200"
    id="vector">
    <path
        id="path"
        d="M 0 129.82 L 0 200.54 L 95.17 200.54 C 96.77 200.54 97.37 198.383 96.01 197.51 L 0.01 129.82 Z M 4.34 138.29 L 86.29 196.07 L 4.34 196.07 L 4.34 138.29 Z"
        fill="#4285f4"/>
    <path
        id="path_1"
        d="M 0 55.21 L 0 157.91 L 128.56 157.91 C 130.72 157.91 131.53 155 129.7 153.82 L 0 55.21 Z M 4.34 64.06 L 121.9 153.44 L 4.34 153.44 L 4.34 64.06 Z"
        fill="#aecbf7"/>
    <path
        id="path_2"
        d="M 1.54 0 C 0.73 0 -0.01 0.66 -0.01 1.59 L -0.01 107.61 L 164.69 107.61 C 166.85 107.61 167.66 104.7 165.83 103.52 L 2.35 0.23 C 2.09 0.07 1.81 -0.01 1.54 -0.01 M 4.33 6.72 L 156.93 103.13 L 4.33 103.13 L 4.33 6.72 Z"
        fill="#d2e3fc"/>
    <path
        id="path_7"
        d="M 324.59 199 L 164 199 L 164 83.69 L 164.14 83.69 L 326.12 193.15 C 328.61 194.83 327.51 199 324.58 199 Z"
        fill="#d2e3fc"/>
    <path
        id="path_8"
        d="M 206.7 122 L 325.08 122 C 328.02 122 329.12 117.52 326.62 115.72 L 167.17 0.35 C 165.85 -0.6 164.14 0.5 164.14 2.3 L 164 122 Z"
        fill="#4285f4"/>
</svg>
