<svg
    xmlns="http://www.w3.org/2000/svg"
    viewBox="0 0 80 16"
    id="vector">
    <path
        id="path_3"
        d="M 0.62 31.35 C 0.62 38.582 3.496 45.526 8.61 50.64 C 13.724 55.754 20.668 58.63 27.9 58.63 C 35.132 58.63 42.076 55.754 47.19 50.64 C 52.304 45.526 55.18 38.582 55.18 31.35 C 55.18 24.118 52.304 17.174 47.19 12.06 C 42.076 6.946 35.132 4.07 27.9 4.07 C 20.668 4.07 13.724 6.946 8.61 12.06 C 3.496 17.174 0.62 24.118 0.62 31.35"
        fill="none"
        stroke="#fad2cf"
        stroke-width="1.32"/>
    <path
        id="path_4"
        d="M 47.76 -0.11 C 47.76 3.477 49.186 6.921 51.723 9.457 C 54.259 11.994 57.703 13.42 61.29 13.42 C 64.877 13.42 68.321 11.994 70.857 9.457 C 73.394 6.921 74.82 3.477 74.82 -0.11 C 74.82 -3.697 73.394 -7.141 70.857 -9.677 C 68.321 -12.214 64.877 -13.64 61.29 -13.64 C 57.703 -13.64 54.259 -12.214 51.723 -9.677 C 49.186 -7.141 47.76 -3.697 47.76 -0.11"
        fill="none"
        stroke="#d93025"
        stroke-width="1.32"/>
    <path
        id="path_5"
        d="M 19.51 0 L 19.51 16"
        fill="none"
        stroke="#ee675c"
        stroke-width="1.32"/>
</svg>
