<svg
    xmlns="http://www.w3.org/2000/svg"
    viewBox="0 0 328 200"
    id="vector">
    <path
        id="path_3"
        d="M 0 127.9 L 0 200.74 L 89.49 200.74 C 89.49 161.88 42.72 130.11 0 127.9 M 4.18 132.38 C 39.82 136 80.36 160.18 85.11 196.6 L 4.18 196.6 L 4.18 132.38 Z"
        fill="#fbbc04"/>
    <path
        id="path_4"
        d="M 0 47.82 L 0 156.61 L 127.01 156.61 C 127.01 101.45 68.97 49.31 0 47.8 M 4.18 52.13 C 60.55 56.91 114.36 91.27 122.71 152.47 L 4.18 152.47 L 4.18 52.13 Z"
        fill="#fde293"/>
    <path
        id="path_5"
        d="M 71.4 0 L 0 0 L 0 96.27 L 164.68 96.27 C 164.68 44.9 121.67 1.88 71.4 0 M 71.32 4.15 C 115.09 6.13 156.91 43.22 160.4 92.12 L 4.18 92.12 L 4.18 4.15 L 71.32 4.15 Z"
        fill="#fdedc5"/>
    <path
        id="path_6"
        d="M 279.91 200 C 279.91 149.12 219.33 107.53 164 104.63 L 164 200 L 279.91 200 Z"
        fill="#fde293"/>
    <path
        id="path_9"
        d="M 328.67 142.62 C 328.67 70.39 253.42 2.11 164 0.16 L 164 142.62 L 328.67 142.62 Z"
        fill="#fbbc04"/>
</svg>
