<svg
    xmlns="http://www.w3.org/2000/svg"
    viewBox="0 0 328 200"
    id="vector">
    <path
        id="path"
        d="M 165 100 L 165 200 L 332 200 L 332 155.87 L 291.07 155.87 L 291.07 139.54 L 256 139.54 L 256 118.87 L 215.6 118.87 L 215.6 100 Z"
        fill="#fad2cf"/>
    <path
        id="path_1"
        d="M 0 48 L 116 48 L 116 43 L 0 43 Z M 111 93 L 116 93 L 116 43 L 111 43 Z M 111 146 L 116 146 L 116 98 L 111 98 Z M 0 43 L 5 43 L 5 0 L 0 0 Z"
        fill="#fad2cf"/>
    <path
        id="path_2"
        d="M 0 5 L 62 5 L 62 0 L 0 0 Z M 0 151 L 160 151 L 160 146 L 0 146 Z M 0 200 L 165 200 L 165 195 L 0 195 Z M 0 201 L 5 201 L 5 98 L 0 98 Z M 57 93 L 62 93 L 62 0 L 57 0 Z"
        fill="#fce8e6"/>
    <path
        id="path_7"
        d="M 165 0 L 165 100 L 332 100 L 332 55.87 L 291.07 55.87 L 291.07 39.54 L 256 39.54 L 256 18.87 L 215.61 18.87 L 215.61 0 Z"
        fill="#e5443f"/>
    <path
        id="path_8"
        d="M 0 98 L 165 98 L 165 93 L 0 93 Z M 160 195 L 165 195 L 165 93 L 160 93 Z M 0 93 L 5 93 L 5 48 L 0 48 Z"
        fill="#ee675c"/>
</svg>
