<svg
    xmlns="http://www.w3.org/2000/svg"
    viewBox="0 0 80 16"
    id="vector">
    <path
        id="path"
        d="M 7.48 -10.34 C 7.48 -4.566 9.776 0.978 13.859 5.061 C 17.942 9.144 23.486 11.44 29.26 11.44 C 35.034 11.44 40.578 9.144 44.661 5.061 C 48.744 0.978 51.04 -4.566 51.04 -10.34 C 51.04 -16.114 48.744 -21.658 44.661 -25.741 C 40.578 -29.824 35.034 -32.12 29.26 -32.12 C 23.486 -32.12 17.942 -29.824 13.859 -25.741 C 9.776 -21.658 7.48 -16.114 7.48 -10.34"
        fill="none"
        stroke="#af5cf7"
        stroke-width="1.32"/>
    <path
        id="path_1"
        d="M -7.24 43.01 C -7.24 52.923 -3.298 62.439 3.711 69.449 C 10.721 76.458 20.237 80.4 30.15 80.4 C 40.063 80.4 49.579 76.458 56.589 69.449 C 63.598 62.439 67.54 52.923 67.54 43.01 C 67.54 33.097 63.598 23.581 56.589 16.571 C 49.579 9.562 40.063 5.62 30.15 5.62 C 20.237 5.62 10.721 9.562 3.711 16.571 C -3.298 23.581 -7.24 33.097 -7.24 43.01"
        fill="none"
        stroke="#e9d2fd"
        stroke-width="1.32"/>
    <path
        id="path_2"
        d="M 50.36 20.54 L 50.36 11.95 L 57.31 11.95 L 57.31 3.57 L 65.5 3.57 L 65.5 -4.24"
        fill="none"
        stroke="#af5cf7"
        stroke-width="1.32"/>
</svg>
