<svg
    xmlns="http://www.w3.org/2000/svg"
    viewBox="0 0 145 54"
    id="vector">
    <path
        id="path_7"
        d="M 54 9 C 54 11.386 53.051 13.677 51.364 15.364 C 49.677 17.051 47.386 18 45 18 C 42.614 18 40.323 17.051 38.636 15.364 C 36.949 13.677 36 11.386 36 9 C 36 6.614 36.949 4.323 38.636 2.636 C 40.323 0.949 42.614 0 45 0 C 47.386 0 49.677 0.949 51.364 2.636 C 53.051 4.323 54 6.614 54 9"
        fill="#4285f4"
        fill-rule="evenodd"/>
    <path
        id="path_8"
        d="M 36 54 L 54 54 L 54 18 L 36 18 L 36 54 Z M 37.688 52.312 L 52.312 52.312 L 52.312 19.688 L 37.688 19.688 L 37.688 52.312 Z"
        fill="#d2e3fc"
        fill-rule="evenodd"/>
    <path
        id="path_9"
        d="M 91 54 L 109 54 L 109 18 L 91 18 L 91 54 Z M 92.688 52.312 L 107.312 52.312 L 107.312 19.688 L 92.689 19.688 L 92.689 52.312 Z"
        fill="#fdedc5"
        fill-rule="evenodd"/>
    <path
        id="path_10"
        d="M 36 28 L 0 28 M 36 44 L 0 44 M 10 18 L 10 54 M 26 18 L 26 54"
        fill="#00000000"
        stroke="#aecbf7"
        stroke-width="1.637"
        fill-rule="evenodd"/>
    <path
        id="path_11"
        d="M 127 0 L 127 54 L 145 54 L 145 9 L 127 0 Z M 128.688 2.73 L 143.313 10.043 L 143.313 52.313 L 128.688 52.313 L 128.688 2.73 Z"
        fill="#ceead6"
        fill-rule="evenodd"/>
    <path
        id="path_12"
        d="M 72 18 C 62.059 18 54 26.059 54 36 L 90 36 C 90 26.059 81.941 18 72 18 M 72 19.688 C 80.425 19.688 87.379 26.108 88.226 34.313 L 55.774 34.313 C 56.622 26.108 63.575 19.687 72 19.687"
        fill="#fad2cf"
        fill-rule="evenodd"/>
    <path
        id="path_13"
        d="M 72 54 C 81.941 54 90 45.941 90 36 L 54 36 C 54 45.941 62.059 54 72 54"
        fill="#e5443f"
        fill-rule="evenodd"/>
    <path
        id="path_14"
        d="M 109 18 C 109 27.941 117.059 36 127 36 L 127 0 C 117.059 0 109 8.059 109 18"
        fill="#34a853"
        fill-rule="evenodd"/>
    <path
        id="path_15"
        d="M 106.892 0 L 92.473 0 L 91.977 1.006 L 90.222 4.572 L 88.409 8.253 L 84.105 16.993 C 83.833 17.547 84.108 18 84.718 18 L 108 18 L 108 0 L 106.892 0 Z"
        fill="#fbbc04"
        fill-rule="evenodd"/>
</svg>
