<svg
    xmlns="http://www.w3.org/2000/svg"
    viewBox="0 0 36 36"
    id="vector">
    <path
        id="path"
        d="M 18 18 M 0.625 18 C 0.625 13.394 2.457 8.971 5.714 5.714 C 8.971 2.457 13.394 0.625 18 0.625 C 22.606 0.625 27.029 2.457 30.286 5.714 C 33.543 8.971 35.375 13.394 35.375 18 C 35.375 22.606 33.543 27.029 30.286 30.286 C 27.029 33.543 22.606 35.375 18 35.375 C 13.394 35.375 8.971 33.543 5.714 30.286 C 2.457 27.029 0.625 22.606 0.625 18"
        fill="none"
        stroke="#ff6c00"
        stroke-width="1.25"/>
    <path
        id="path_2"
        d="M 12.613 10.379 C 12.663 8.987 13.251 7.668 14.254 6.701 C 15.256 5.735 16.595 5.194 17.988 5.194 C 19.38 5.194 20.719 5.735 21.721 6.701 C 22.724 7.668 23.312 8.987 23.363 10.379 Z"
        fill="none"
        stroke="#31e7b6"
        stroke-width="1.25"/>
    <path
        id="path_3"
        d="M 12 11 C 12 12.591 12.633 14.118 13.757 15.243 C 14.882 16.367 16.409 17 18 17 C 19.591 17 21.118 16.367 22.243 15.243 C 23.367 14.118 24 12.591 24 11 Z"
        fill="#069f86"/>
    <path
        id="path_4"
        d="M 8.2 26.9 C 8.2 24.302 9.233 21.808 11.07 19.97 C 12.908 18.133 15.402 17.1 18 17.1 C 20.598 17.1 23.092 18.133 24.93 19.97 C 26.767 21.808 27.8 24.302 27.8 26.9 Z"
        fill="none"
        stroke="#4285f4"
        stroke-width="1.1"/>
</svg>
