<svg
    xmlns="http://www.w3.org/2000/svg"
    viewBox="0 0 200 200"
    id="vector">
    <path
        id="path"
        d="M 48.13 136.677 C 48.13 132.035 51.836 128.273 56.408 128.273 C 60.98 128.273 64.686 132.035 64.686 136.677 L 64.686 176.596 C 64.686 181.238 60.98 185 56.408 185 C 51.836 185 48.13 181.238 48.13 176.596 Z"
        fill="#fabfa9"
        stroke-width="1"/>
    <path
        id="path_1"
        d="M 96 82.609 C 96 60.976 78.539 43.439 57 43.439 C 35.461 43.439 18 60.976 18 82.608 C 18 104.241 35.461 121.777 57 121.777 C 78.539 121.777 96 104.24 96 82.608 Z M 98 82.609 C 98 105.351 79.644 123.787 57 123.787 C 34.356 123.787 16 105.351 16 82.609 C 16 59.867 34.356 41.431 57 41.431 C 79.644 41.431 98 59.867 98 82.609 Z"
        fill="#27e5fd"/>
    <path
        id="path_2"
        d="M 76 82.609 C 76 72.07 67.493 63.526 57 63.526 C 46.507 63.526 38 72.07 38 82.609 C 38 93.148 46.507 101.692 57 101.692 C 67.493 101.692 76 93.148 76 82.609 Z M 78 82.609 C 78 94.257 68.598 103.7 57 103.7 C 45.402 103.7 36 94.257 36 82.609 C 36 70.961 45.402 61.518 57 61.518 C 68.598 61.518 78 70.961 78 82.609 Z"
        fill="#27e5fd"/>
    <path
        id="path_3"
        d="M 66 82.609 C 66 77.617 61.971 73.57 57 73.57 C 52.029 73.57 48 77.617 48 82.609 C 48 87.601 52.029 91.648 57 91.648 C 61.971 91.648 66 87.601 66 82.609 Z M 68 82.609 C 68 88.711 63.075 93.657 57 93.657 C 50.925 93.657 46 88.711 46 82.609 C 46 76.507 50.925 71.561 57 71.561 C 63.075 71.561 68 76.507 68 82.609 Z"
        fill="#27e5fd"/>
    <path
        id="path_4"
        d="M 106 82.609 C 106 55.429 84.062 33.396 57 33.396 C 29.938 33.396 8 55.429 8 82.609 C 8 109.789 29.938 131.822 57 131.822 C 84.062 131.822 106 109.789 106 82.609 Z M 108 82.609 C 108 110.898 85.167 133.83 57 133.83 C 28.833 133.83 6 110.898 6 82.609 C 6 54.32 28.833 31.387 57 31.387 C 85.167 31.387 108 54.319 108 82.608 Z"
        fill="#27e5fd"/>
    <path
        id="path_5"
        d="M 86 82.609 C 86 66.523 73.016 53.483 57 53.483 C 40.984 53.483 28 66.523 28 82.609 C 28 98.695 40.984 111.735 57 111.735 C 73.016 111.735 86 98.695 86 82.609 Z M 88 82.609 C 88 99.804 74.121 113.744 57 113.744 C 39.879 113.744 26 99.805 26 82.609 C 26 65.414 39.879 51.474 57 51.474 C 74.121 51.474 88 65.413 88 82.609 Z"
        fill="#27e5fd"/>
    <path
        id="path_6"
        d="M 5.557 31.364 C 33.642 31.364 56.409 54.645 56.409 83.364 C 39.882 83.364 22.508 83.364 5.557 83.364 C 5.557 66.031 5.557 48.697 5.557 31.364 Z"
        fill="#fcd230"/>
    <path
        id="path_475"
        d="M 108.443 31.364 C 80.358 31.364 57.591 54.645 57.591 83.364 C 74.118 83.364 91.492 83.364 108.443 83.364 C 108.443 66.031 108.443 48.697 108.443 31.364 Z"
        fill="#fcd230"/>
    <path
        id="path_476"
        d="M 72.68 32.646 C 72.68 41.726 65.64 49.086 56.956 49.086 C 48.272 49.086 41.232 41.725 41.232 32.646 C 41.232 23.566 48.272 16.206 56.956 16.206 C 65.64 16.206 72.68 23.567 72.68 32.646 Z"
        fill="none"
        stroke="#fabfa9"
        stroke-width="2"
        stroke-linecap="round"
        stroke-linejoin="round"/>
    <path
        id="path_477"
        d="M 61.673 32.646 C 61.673 35.37 59.561 37.578 56.956 37.578 C 54.351 37.578 52.239 35.37 52.239 32.646 C 52.239 29.922 54.351 27.714 56.956 27.714 C 59.561 27.714 61.673 29.922 61.673 32.646 Z"
        fill="none"
        stroke="#fabfa9"
        stroke-width="2"
        stroke-linecap="round"
        stroke-linejoin="round"/>
    <path
        id="path_478"
        d="M 67.176 32.646 C 67.176 38.548 62.6 43.332 56.955 43.332 C 51.31 43.332 46.734 38.548 46.734 32.646 C 46.734 26.744 51.31 21.96 56.955 21.96 C 62.6 21.96 67.176 26.744 67.176 32.646 Z"
        fill="none"
        stroke="#fabfa9"
        stroke-width="2"
        stroke-linecap="round"
        stroke-linejoin="round"/>
    <path
        id="path_479"
        d="M 156.473 137.336 C 156.473 133.575 159.395 130.527 163 130.527 C 166.605 130.527 169.527 133.575 169.527 137.336 L 169.527 178.191 C 169.527 181.952 166.605 185 163 185 C 159.395 185 156.473 181.952 156.473 178.191 Z"
        fill="#fdd108"/>
    <path
        id="path_480"
        d="M 176.956 64.211 C 176.956 66.343 175.224 68.071 173.088 68.071 C 170.952 68.071 169.22 66.343 169.22 64.211 C 169.22 62.079 170.952 60.351 173.088 60.351 C 175.224 60.351 176.956 62.079 176.956 64.211 Z"
        fill="#fdd108"
        stroke="#fdd108"
        stroke-width="2"
        stroke-linecap="round"
        stroke-linejoin="round"/>
    <path
        id="path_481"
        d="M 181.469 64.211 C 181.469 68.83 177.717 72.574 173.088 72.574 C 168.459 72.574 164.707 68.83 164.707 64.211 C 164.707 59.592 168.459 55.848 173.088 55.848 C 177.717 55.848 181.469 59.592 181.469 64.211 Z"
        fill="none"
        stroke="#fdd108"
        stroke-width="2"
        stroke-linecap="round"
        stroke-linejoin="round"/>
    <path
        id="path_482"
        d="M 146.385 77.237 C 138.847 77.237 132.737 71.14 132.737 63.619 L 132.736 50 L 146.384 50 C 153.922 50 160.032 56.097 160.032 63.618 L 160.032 77.236 Z"
        fill="#1ce8b4"/>
    <path
        id="path_483"
        d="M 146.385 111.579 C 138.847 111.579 132.737 105.482 132.737 97.961 L 132.736 84.342 L 146.384 84.342 C 153.922 84.342 160.032 90.439 160.032 97.96 L 160.032 111.578 Z"
        fill="#1ce8b4"/>
    <path
        id="path_484"
        d="M 146.385 144.737 C 138.847 144.737 132.737 138.64 132.737 131.119 L 132.736 117.5 L 146.384 117.5 C 153.922 117.5 160.032 123.597 160.032 131.118 L 160.032 144.736 Z"
        fill="#1ce8b4"/>
    <path
        id="path_485"
        d="M 179.615 104.474 C 187.153 104.474 193.263 98.377 193.263 90.856 L 193.264 77.237 L 179.616 77.237 C 172.078 77.237 165.968 83.334 165.968 90.855 L 165.968 104.473 Z"
        fill="#1ce8b4"/>
    <path
        id="path_486"
        d="M 179.615 137.632 C 187.153 137.632 193.263 131.535 193.263 124.014 L 193.264 110.395 L 179.616 110.395 C 172.078 110.395 165.968 116.492 165.968 124.013 L 165.968 137.631 Z"
        fill="#1ce8b4"/>
</svg>
